<?xml version="1.0" standalone="no"?><!DOCTYPE svg PUBLIC "-//W3C//DTD SVG 1.1//EN" "http://www.w3.org/Graphics/SVG/1.1/DTD/svg11.dtd"><svg t="1768123914468" class="icon" viewBox="0 0 1024 1024" version="1.1" xmlns="http://www.w3.org/2000/svg" p-id="6313" xmlns:xlink="http://www.w3.org/1999/xlink" width="200" height="200"><path d="M227.541 85.333H796.46a142.208 142.208 0 0 1 142.208 142.208V796.46a142.208 142.208 0 0 1-142.208 142.208H227.54A142.208 142.208 0 0 1 85.333 796.459V227.54A142.208 142.208 0 0 1 227.541 85.333" fill="#8662FA" p-id="6314"></path><path d="M590.25 450.475c0.086 5.205 0.129 10.453 0 15.658l0.427-0.896h145.92c15.062 0 35.883 13.312 45.227 25.259 34.987 44.8 3.072 107.776-52.352 109.099H589.824c20.395 97.109-43.008 193.28-139.221 214.613-160.939 35.413-283.776-144.128-191.147-281.13A183.893 183.893 0 0 1 460.8 459.903c-2.219-55.424 4.437-111.275 34.133-159.147 50.987-82.944 144.086-100.224 235.008-94.464 53.632 3.542 83.798 62.507 51.414 106.411-20.694 28.16-48.811 27.605-77.91 27.008-13.952-0.299-28.16-0.597-41.813 2.261-32.341 7.083-58.07 29.27-67.413 61.654-4.267 15.274-4.096 31.061-3.968 46.805zM457.686 663.424c21.76-38.144-8.874-84.693-52.309-80.683-38.144 3.542-59.861 45.227-42.581 78.934a53.803 53.803 0 0 0 94.89 1.749z" fill="#FFFFFF" p-id="6315"></path></svg>