<?xml version="1.0" standalone="no"?><!DOCTYPE svg PUBLIC "-//W3C//DTD SVG 1.1//EN" "http://www.w3.org/Graphics/SVG/1.1/DTD/svg11.dtd"><svg t="1774522382949" class="icon" viewBox="0 0 1024 1024" version="1.1" xmlns="http://www.w3.org/2000/svg" p-id="1841" xmlns:xlink="http://www.w3.org/1999/xlink" width="256" height="256"><path d="M851.626667 853.333333a13.653333 13.653333 0 0 1-13.653334-13.653333V184.32a13.653333 13.653333 0 0 1 13.653334-13.653333h158.293333a13.653333 13.653333 0 0 1 14.08 13.653333v655.36a13.653333 13.653333 0 0 1-14.08 13.653333z m-265.386667 0s-12.8-3.84-12.8-13.653333v-402.346667A93.013333 93.013333 0 0 0 479.573333 341.333333H183.466667c-17.066667 0-12.8 12.8-12.8 12.8v485.546667c0 11.52-12.8 13.653333-12.8 13.653333H14.08a13.653333 13.653333 0 0 1-14.08-13.653333V184.32A13.653333 13.653333 0 0 1 14.08 170.666667h548.693333a182.613333 182.613333 0 0 1 181.333334 182.186666l0.426666 486.826667a13.653333 13.653333 0 0 1-13.653333 13.653333z m-294.4 0a12.8 12.8 0 0 1-12.8-12.8v-384a12.8 12.8 0 0 1 12.8-12.8h160.853333a12.8 12.8 0 0 1 12.373334 12.8v384a12.8 12.8 0 0 1-12.8 12.8z" p-id="1842"></path></svg>