<?xml version="1.0" standalone="no"?><!DOCTYPE svg PUBLIC "-//W3C//DTD SVG 1.1//EN" "http://www.w3.org/Graphics/SVG/1.1/DTD/svg11.dtd"><svg t="1768779494587" class="icon" viewBox="0 0 1024 1024" version="1.1" xmlns="http://www.w3.org/2000/svg" p-id="6261" xmlns:xlink="http://www.w3.org/1999/xlink" width="200" height="200"><path d="M186.1632 596.8896c0-51.0464 30.9248-102.2976 91.4432-142.6944 60.2624-40.2944 146.0736-66.6624 243.0976-66.6624 97.0752 0 182.8864 26.368 243.2 66.6624 30.464 20.3776 53.504 43.52 68.7616 67.9936 18.6368-33.4848 26.624-69.12 22.3232-104.5504a15.9744 15.9744 0 0 1 0.6144-6.8608 368.7936 368.7936 0 0 0-39.8848-30.72c-77.4144-51.712-181.8624-82.2784-295.0144-82.2784-113.1008 0-217.5488 30.5664-294.9632 82.3296C148.48 431.616 94.208 507.5968 94.208 596.8896c0 89.344 54.272 165.2224 131.4816 216.832C303.104 865.4336 407.552 896 520.704 896c113.152 0 217.6-30.5664 295.0144-82.2784 77.2608-51.6096 131.4816-127.488 131.4816-216.832 0-56.832-21.9136-108.1344-57.7536-151.296-1.8432 39.7824-16.2304 77.9776-40.0384 112.7424 3.9424 12.7488 5.888 25.6512 5.888 38.5536 0 51.0464-30.9248 102.2976-91.4432 142.7456-60.2624 40.2432-146.0736 66.6112-243.1488 66.6112-97.024 0-182.8352-26.368-243.0976-66.6112-60.5184-40.448-91.4432-91.648-91.4432-142.7456z" fill="#3762FF" p-id="6262"></path><path d="M185.344 492.5952c-24.4736 67.9424-18.688 129.1776 13.2096 173.1584 31.8464 44.032 89.088 69.632 162.816 69.632 73.6256 0 159.3856-26.112 238.1824-80.5888 78.848-54.528 132.5056-124.8768 156.9792-192.6656 24.5248-67.9936 18.7392-129.2288-13.1584-173.2096-31.8464-43.9808-89.088-69.632-162.816-69.632-73.6256 0-159.3856 26.112-238.2336 80.64C263.5264 354.4064 209.92 424.8064 185.3952 492.544zM97.28 462.2336c31.5904-87.6032 98.304-172.6976 191.0784-236.8512C381.0304 161.28 485.376 128 580.5056 128c94.976 0 185.088 33.5872 239.1552 108.1856 54.0672 74.5984 56.576 168.7552 24.9856 256.256-31.5904 87.6544-98.3552 172.7488-191.0784 236.8512-92.672 64.1536-197.0176 97.3824-292.1472 97.4336-94.976 0-185.088-33.5872-239.1552-108.1856-54.0672-74.5984-56.576-168.8064-25.0368-256.3072z" fill="#1041F3" p-id="6263"></path></svg>